<?xml version="1.0" standalone="no"?>
<!DOCTYPE svg PUBLIC "-//W3C//DTD SVG 20010904//EN"
 "http://www.w3.org/TR/2001/REC-SVG-20010904/DTD/svg10.dtd">
<svg version="1.0" xmlns="http://www.w3.org/2000/svg"
 width="500.000000pt" height="500.000000pt" viewBox="0 0 500.000000 500.000000"
 preserveAspectRatio="xMidYMid meet">

<g transform="translate(0.000000,500.000000) scale(0.100000,-0.100000)"
fill="#000000" stroke="none">
<path d="M1992 3428 c-16 -16 -15 -45 1 -55 6 -4 52 -15 102 -23 l89 -16 133
-339 c73 -187 135 -347 138 -355 3 -10 -15 -31 -51 -59 -90 -70 -108 -141 -51
-195 l34 -32 -24 -17 c-33 -26 -32 -79 3 -106 34 -26 54 -26 88 0 30 24 34 63
10 97 l-15 22 305 0 c282 0 330 -4 296 -25 -16 -10 -12 -72 6 -89 46 -46 120
-18 118 45 0 19 -4 42 -8 52 -7 14 -3 17 27 17 27 0 37 5 42 20 16 49 11 50
-424 52 l-406 3 -3 26 c-3 22 8 35 60 76 35 27 69 53 77 57 17 11 110 21 410
46 135 11 249 24 254 29 10 10 56 345 57 413 0 47 -18 58 -100 58 -57 0 -60 1
-50 20 21 39 79 73 133 78 106 8 186 -68 187 -176 0 -52 -1 -53 -27 -50 -25 3
-31 -3 -60 -62 -44 -87 -41 -104 18 -107 45 -2 46 -1 67 43 26 52 28 84 7 84
-19 0 -19 -1 5 51 11 24 20 59 20 77 0 104 -105 192 -216 179 -65 -7 -93 -30
-149 -121 -9 -15 -42 -15 -383 -3 l-373 12 -45 115 c-25 63 -50 120 -57 127
-11 11 -168 43 -212 43 -12 0 -26 -5 -33 -12z m488 -398 l0 -60 -33 0 c-31 0
-34 3 -55 60 l-21 60 54 0 55 0 0 -60z m106 50 l44 0 0 -55 0 -55 -60 0 -60 0
0 61 c0 52 2 60 16 55 9 -3 36 -6 60 -6z m194 -55 l0 -55 -60 0 -60 0 0 55 0
55 60 0 60 0 0 -55z m150 0 l0 -55 -60 0 -60 0 0 55 0 55 60 0 60 0 0 -55z
m74 23 c-16 -31 -16 -32 5 -49 25 -20 28 -44 5 -35 -9 3 -24 6 -35 6 -16 0
-19 7 -19 49 0 51 -1 50 53 60 4 0 0 -13 -9 -31z m202 -9 c-3 -17 -6 -42 -6
-56 0 -23 -3 -24 -47 -21 -55 3 -62 15 -38 71 14 34 18 37 56 37 41 0 41 0 35
-31z m-126 -159 l0 -60 -65 0 c-72 0 -71 -1 -59 72 7 40 15 44 87 47 l37 1 0
-60z m110 31 c0 -16 -3 -43 -6 -60 -6 -28 -10 -31 -45 -31 l-39 0 0 53 c0 30
3 57 7 60 3 4 24 7 45 7 35 0 38 -2 38 -29z m-710 -38 c0 -31 -2 -54 -4 -52
-2 2 -13 28 -24 57 l-20 52 24 0 c23 0 24 -3 24 -57z m150 2 l0 -55 -60 0 -60
0 0 55 0 55 60 0 60 0 0 -55z m150 0 l0 -55 -60 0 -60 0 0 55 0 55 60 0 60 0
0 -55z m150 0 l0 -55 -60 0 -60 0 0 55 0 55 60 0 60 0 0 -55z m0 -124 c0 -54
-9 -61 -82 -61 l-38 0 0 49 c0 49 1 50 33 54 89 11 87 12 87 -42z m150 5 c0
-42 -1 -44 -37 -50 -21 -3 -50 -6 -65 -6 -26 0 -28 3 -28 43 0 24 3 47 7 50 3
4 33 7 65 7 l58 0 0 -44z m91 4 c-3 -39 -16 -51 -46 -48 -14 2 -21 12 -23 31
-5 46 4 59 40 55 31 -3 33 -5 29 -38z m-541 -24 c0 -52 -1 -54 -31 -60 -56
-11 -67 -7 -78 25 -6 18 -11 45 -11 60 0 29 1 29 60 29 l60 0 0 -54z m150 2
l0 -53 -60 -2 -60 -2 0 54 0 55 60 0 60 0 0 -52z m-346 -421 c38 -27 -2 -95
-41 -71 -22 14 -29 50 -13 70 15 17 31 18 54 1z m697 3 c37 -20 15 -87 -27
-78 -9 2 -23 12 -30 23 -12 18 -11 24 2 43 17 25 27 27 55 12z"/>
<path d="M2392 2283 c2 -10 10 -18 18 -18 8 0 16 8 18 18 2 12 -3 17 -18 17
-15 0 -20 -5 -18 -17z"/>
<path d="M3092 2283 c2 -10 10 -18 18 -18 8 0 16 8 18 18 2 12 -3 17 -18 17
-15 0 -20 -5 -18 -17z"/>
<path d="M1375 2035 c-74 -37 -124 -137 -108 -217 20 -108 124 -181 224 -159
82 19 130 73 137 156 l4 55 -91 0 -91 0 0 -30 c0 -29 2 -30 45 -30 25 0 45 -4
45 -9 0 -40 -54 -76 -99 -66 -44 10 -73 47 -79 103 -5 54 15 104 47 122 33 17
85 12 110 -11 l23 -21 29 28 c34 32 27 47 -36 75 -49 23 -120 24 -160 4z"/>
<path d="M790 1849 l0 -191 90 4 c80 4 95 7 132 34 54 38 79 88 79 158 0 60
-15 98 -58 138 -40 38 -74 48 -164 48 l-79 0 0 -191z m150 106 c42 -21 60 -53
60 -103 0 -37 -6 -50 -34 -78 -21 -21 -44 -34 -60 -34 l-26 0 0 115 c0 126 2
130 60 100z"/>
<path d="M1140 1850 l0 -190 40 0 40 0 0 190 0 190 -40 0 -40 0 0 -190z"/>
<path d="M1670 1850 l0 -190 40 0 40 0 0 190 0 190 -40 0 -40 0 0 -190z"/>
<path d="M1790 2005 c0 -35 0 -35 45 -35 l45 0 0 -155 0 -155 40 0 39 0 3 153
3 152 48 3 c46 3 47 4 47 38 l0 34 -135 0 -135 0 0 -35z"/>
<path d="M2191 2013 c-10 -22 -89 -217 -138 -341 -4 -10 6 -12 42 -10 45 3 49
5 60 38 l12 35 76 3 76 3 12 -41 c12 -39 13 -40 60 -40 l48 0 -77 190 -77 190
-41 0 c-35 0 -43 -4 -53 -27z m88 -185 c1 -14 -7 -18 -40 -18 -45 0 -45 0 -11
79 l15 36 18 -40 c9 -22 18 -48 18 -57z"/>
<path d="M2450 1850 l0 -190 110 0 110 0 0 40 0 40 -65 0 -65 0 0 150 0 150
-45 0 -45 0 0 -190z"/>
<path d="M2860 2028 c0 -7 -7 -78 -15 -158 -22 -218 -23 -210 24 -210 35 0 39
3 45 31 3 17 6 50 7 73 0 22 3 59 8 81 7 40 7 40 45 -73 36 -108 39 -113 64
-110 24 3 30 13 62 105 19 56 38 105 42 108 3 4 9 -43 13 -104 l8 -111 87 0
87 0 16 40 15 40 72 0 72 0 15 -40 c15 -38 18 -40 60 -40 23 0 43 4 43 8 0 4
-33 89 -73 188 l-74 179 -43 0 -44 0 -72 -179 c-82 -205 -75 -208 -95 37 l-12
147 -47 0 -48 0 -38 -101 c-21 -55 -41 -102 -45 -104 -3 -3 -24 43 -45 100
l-39 105 -47 0 c-32 0 -48 -4 -48 -12z m603 -157 c9 -27 17 -51 17 -55 0 -3
-18 -6 -40 -6 -22 0 -40 3 -40 6 0 13 35 104 40 104 3 0 13 -22 23 -49z"/>
<path d="M3650 1851 l0 -191 45 0 45 0 0 76 0 77 60 -77 60 -76 50 0 c28 0 50
3 50 6 0 3 -27 37 -59 76 l-60 70 35 33 c30 29 34 38 34 83 0 39 -5 57 -24 79
-23 27 -28 28 -130 31 l-106 4 0 -191z m163 112 c4 -2 7 -20 7 -39 0 -28 -5
-36 -26 -44 -49 -19 -54 -14 -54 46 l0 56 33 -7 c17 -4 35 -9 40 -12z"/>
<path d="M3960 2005 c0 -35 0 -35 45 -35 l45 0 0 -155 0 -155 45 0 45 0 0 155
0 155 45 0 c45 0 45 0 45 35 l0 35 -135 0 -135 0 0 -35z"/>
<path d="M1772 1508 c8 -7 28 -46 43 -85 16 -40 34 -73 40 -73 7 0 22 28 35
63 12 34 28 72 36 85 13 20 13 22 -8 22 -18 0 -23 -6 -24 -28 -1 -15 -11 -47
-21 -72 l-20 -45 -22 59 c-12 33 -20 65 -17 73 4 9 -4 13 -26 13 -27 0 -30 -2
-16 -12z"/>
<path d="M2525 1435 c0 -84 0 -85 25 -85 19 0 21 3 12 12 -7 7 -12 42 -12 85
0 52 -4 73 -12 73 -10 0 -13 -24 -13 -85z"/>
<path d="M2686 1505 c-32 -32 -17 -55 50 -79 51 -17 55 -49 7 -54 -24 -2 -35
2 -45 17 -18 30 -28 26 -28 -11 0 -25 3 -29 10 -18 7 12 12 12 22 2 17 -17 73
-15 88 2 22 28 8 59 -35 76 -55 21 -65 28 -58 45 7 20 62 20 69 0 9 -23 24
-18 24 8 0 19 -6 22 -44 25 -30 2 -49 -2 -60 -13z"/>
<path d="M2828 1513 c16 -6 16 -135 0 -151 -9 -9 -6 -12 13 -12 24 0 25 3 25
48 -1 44 1 47 24 47 23 0 25 -4 28 -47 2 -35 7 -48 18 -48 10 0 14 6 11 18 -3
9 -8 33 -11 54 -7 38 -26 52 -57 43 -16 -5 -19 -1 -19 24 0 26 -4 31 -22 30
-13 0 -17 -3 -10 -6z"/>
<path d="M1980 1495 c0 -8 5 -15 10 -15 6 0 10 7 10 15 0 8 -4 15 -10 15 -5 0
-10 -7 -10 -15z"/>
<path d="M2147 1477 c-6 -15 6 -98 17 -115 9 -15 46 -16 46 0 0 6 -3 8 -7 5
-13 -13 -33 16 -33 49 0 24 5 34 15 34 8 0 15 5 15 10 0 6 -7 10 -15 10 -8 0
-15 5 -15 10 0 14 -17 12 -23 -3z"/>
<path d="M1975 1410 c0 -57 1 -60 25 -60 19 0 21 3 12 12 -7 7 -12 34 -12 60
0 32 -4 48 -12 48 -9 0 -13 -19 -13 -60z"/>
<path d="M2045 1410 c0 -56 1 -60 24 -60 19 0 21 3 12 14 -19 23 -9 70 17 81
12 5 22 13 22 17 0 11 -8 10 -31 -2 -13 -7 -19 -7 -19 0 0 5 -6 10 -12 10 -9
0 -13 -19 -13 -60z"/>
<path d="M2230 1460 c0 -5 4 -10 9 -10 6 0 11 -21 13 -47 l3 -48 53 -1 c38 -1
51 1 43 9 -6 6 -11 33 -11 59 0 34 -4 48 -14 48 -10 0 -12 -12 -8 -50 4 -48 4
-50 -21 -50 -28 0 -37 16 -37 66 0 24 -5 34 -15 34 -8 0 -15 -4 -15 -10z"/>
<path d="M2403 1463 c-26 -10 -12 -19 22 -15 27 3 35 1 35 -12 0 -10 -8 -16
-21 -16 -31 0 -59 -19 -59 -40 0 -24 40 -36 69 -20 14 7 21 7 21 0 0 -5 8 -10
17 -10 13 0 14 3 5 12 -7 7 -12 28 -12 48 0 52 -30 73 -77 53z m57 -68 c0 -17
-29 -34 -47 -28 -19 7 -16 31 5 36 32 9 42 7 42 -8z"/>
<path d="M2990 1450 c-24 -24 -25 -48 -4 -78 19 -27 64 -29 87 -4 24 26 21 68
-5 86 -30 21 -54 20 -78 -4z m74 -16 c19 -49 -13 -85 -52 -58 -24 17 -28 44
-10 62 17 17 55 15 62 -4z"/>
<path d="M3110 1460 c0 -5 5 -10 10 -10 15 0 13 -137 -2 -143 -7 -3 0 -6 17
-6 22 -1 26 2 17 11 -7 7 -12 20 -12 29 0 15 6 17 34 12 29 -4 37 -1 51 21 33
50 -9 111 -61 87 -15 -6 -24 -7 -24 -1 0 6 -7 10 -15 10 -8 0 -15 -4 -15 -10z
m98 -22 c29 -29 -3 -87 -38 -68 -24 13 -32 37 -20 61 12 21 40 25 58 7z"/>
</g>
</svg>
